<svg version="1.1" xmlns="http://www.w3.org/2000/svg" x="0px" y="0px" viewBox="0 0 503.754 503.754" xml:space="preserve"><g transform="translate(1,1)"><style>#background{fill:transparent;} #secondary{fill:#ffa800;}</style><path id="background" d="M494.358 250.877C494.358 116.408 385.346 7.396 250.877 7.396 116.408 7.396 7.396 116.408 7.396 250.877c0 134.469 109.012 243.481 243.481 243.481 134.469 0 243.481-109.012 243.481-243.481M9.757 284.46"/><path id="secondary" d="m9.757 284.46h68.099c-2.107-10.881-3.291-22.09-3.291-33.584 0-11.494 1.184-22.703 3.291-33.584H9.757c-1.52 10.982-2.359 22.182-2.359 33.584 0 11.402 0.839 22.603 2.359 33.584m48.709-182.698 48.117 48.117c12.972-18.479 29.36-34.339 48.293-46.69l-48.36-48.36C88.415 68.179 72.253 83.997 58.466 101.762M250.877 7.396c-11.402 0-22.602 0.848-33.584 2.359v68.108c10.881-2.116 22.09-3.3 33.584-3.3 11.494 0 22.702 1.184 33.584 3.3V9.755C273.479 8.244 262.279 7.396 250.877 7.396m145.79 48.458-48.26 48.26c18.79 12.535 35.036 28.563 47.823 47.168L444.372 103.14C430.712 85.274 414.667 69.33 396.667 55.854m30.524 195.023c0 11.494-1.184 22.702-3.3 33.584h68.108c1.511-10.982 2.359-22.182 2.359-33.584 0-11.402-0.848-22.602-2.359-33.584h-68.108c2.116 10.881 3.3 22.09 3.3 33.584m-28.625 95.997c-12.35 18.933-28.21 35.33-46.69 48.302l48.117 48.108c17.757-13.786 33.575-29.94 46.933-48.05zm-181.273 77.02v68.099c10.982 1.52 22.182 2.368 33.584 2.368 11.402 0 22.602-0.848 33.584-2.368v-68.099c-10.881 2.107-22.09 3.3-33.584 3.3-11.494-0.001-22.703-1.193-33.584-3.3m-113.176-75.49-48.26 48.26c13.475 18.009 29.419 34.045 47.286 47.705l48.142-48.142C132.68 383.44 116.644 367.194 104.117 348.404" /><path id="stroke" d="M250.877 502.754C111.992 502.754-1 389.762-1 250.877-1 111.992 111.992-1 250.877-1c138.885 0 251.877 112.992 251.877 251.877 0 138.885-112.992 251.877-251.877 251.877zm0-486.962c-129.628 0-235.085 105.457-235.085 235.085 0 129.628 105.457 235.085 235.085 235.085 129.628 0 235.085-105.457 235.085-235.085 0-129.628-105.457-235.085-235.085-235.085zm0 419.795c-101.849 0-184.71-82.86-184.71-184.71 0-101.85 82.86-184.71 184.71-184.71 101.85 0 184.71 82.86 184.71 184.71 0 101.85-82.861 184.71-184.71 184.71zm0-352.628c-92.589 0-167.918 75.329-167.918 167.918 0 92.593 75.329 167.918 167.918 167.918 92.593 0 167.918-75.325 167.918-167.918 0-92.589-75.325-167.918-167.918-167.918zM88.034 292.856H2.444L1.44 285.616C-0.18 273.925-1 262.233-1 250.877c0-11.356 0.82-23.04 2.439-34.736l1.004-7.244h85.591l-1.935 9.991c-2.083 10.757-3.14 21.519-3.14 31.989 0 10.47 1.058 21.236 3.14 31.985zM17.177 276.065h50.769c-1.181-8.47-1.779-16.902-1.779-25.188 0-8.285 0.599-16.722 1.779-25.188H17.177c-0.918 8.498-1.386 16.943-1.386 25.188 0.001 8.248 0.468 16.693 1.386 25.188zM107.716 162.884 47.297 102.465 51.835 96.619C66.134 78.183 82.856 61.847 101.53 48.072l5.813-4.288 60.788 60.788-8.666 5.649c-18.095 11.807-33.575 26.77-46.009 44.484zm-37.995-61.739 35.92 35.92c10.437-13.315 22.56-25.056 36.187-35.051L105.765 65.95C92.56 76.338 80.475 88.133 69.721 101.145Zm223.135-13.094-9.995-1.947c-21.482-4.173-42.492-4.173-63.965 0l-9.999 1.947V2.431l7.252-0.996c23.54-3.235 45.944-3.226 69.451 0l7.256 0.996zM250.877 66.167c8.289 0 16.726 0.599 25.188 1.783V17.182c-17.087-1.849-33.284-1.849-50.375 0V67.95c8.461-1.184 16.893-1.783 25.187-1.783zm144.157 98.189-5.723-8.318c-12.258-17.825-27.59-32.948-45.563-44.939l-8.519-5.682 60.641-60.645 5.83 4.358c18.522 13.865 35.125 30.32 49.342 48.912l4.469 5.838zM361.385 103.01c13.529 10.126 25.54 21.982 35.855 35.391l35.92-35.92C422.468 89.358 410.473 77.47 397.379 67.016ZM499.31 292.856h-85.599l1.943-9.995c2.083-10.724 3.14-21.49 3.14-31.985 0-10.499-1.058-21.26-3.14-31.981l-1.943-9.999h85.599l1 7.248c1.623 11.725 2.443 23.408 2.443 34.731 0 11.323-0.82 23.015-2.443 34.731zm-65.503-16.791h50.769c0.918-8.511 1.386-16.96 1.386-25.188 0-8.228-0.467-16.673-1.386-25.188h-50.769c1.181 8.453 1.779 16.886 1.779 25.188 0.001 8.301-0.598 16.734-1.779 25.188zm-34.51 178.396-60.428-60.419 8.183-5.739c17.694-12.422 32.665-27.902 44.48-46.022l5.657-8.658 60.78 60.78-4.288 5.813c-13.75 18.645-30.083 35.371-48.539 49.703zm-34.608-58.345 35.92 35.912c13.028-10.774 24.819-22.851 35.191-36.043l-36.06-36.068c-10.003 13.643-21.744 25.762-35.051 36.199zM250.877 502.754c-11.323 0-23.007-0.82-34.731-2.443l-7.248-1V413.72l9.991 1.935c21.535 4.165 42.435 4.165 63.974 0l9.995-1.935v85.591l-7.248 1c-11.718 1.623-23.41 2.443-34.733 2.443zm-25.188-18.178c17.042 1.837 33.362 1.837 50.375 0v-50.769c-16.964 2.361-33.436 2.361-50.375 0zm-121.802-29.074-5.842-4.46C79.466 436.833 63.006 420.23 49.133 401.7l-4.358-5.83 60.645-60.641 5.682 8.519c11.995 17.981 27.114 33.313 44.939 45.554l8.322 5.715zM67.02 397.379c10.462 13.102 22.351 25.098 35.465 35.773l35.916-35.92c-13.406-10.306-25.261-22.31-35.387-35.847z"/></g></svg>
