<svg xmlns="http://www.w3.org/2000/svg" viewBox="0 0 296.477 296.477">
  <path d="M244.63 35.621c-21.771-18.635-47.382-29.855-73.767-33.902-48.992-7.516-100.64 9.702-135.241 50.128-53.236 62.198-45.972 155.773 16.226 209.01 21.771 18.634 47.381 29.853 73.766 33.901 48.991 7.517 100.641-9.703 135.241-50.13 53.236-62.197 45.971-155.772-16.225-209.007zm28.731 155.62l-45.305-15.618c6.102-17.803 6.028-37.107.014-54.724l45.257-15.575c3.577 10.453 5.862 21.429 6.74 32.741 1.422 18.309-.915 36.323-6.706 53.176zm2.544-87.183v-.008.008zm-27.97-42.586l-36.069 31.332c-2.669-3.055-5.579-5.961-8.752-8.677-11.467-9.814-24.81-15.995-38.637-18.692l9.095-46.741c22.33 4.33 43.21 14.294 60.635 29.209a134.544 134.544 0 0 1 13.728 13.569zM103.251 23.983c6.428-2.315 13.021-4.109 19.71-5.388l9.087 46.843c-17.789 3.467-34.584 12.651-47.393 27.341L48.55 61.38c14.784-16.964 33.656-29.812 54.701-37.397zm-80.127 81.253l45.297 15.617c-6.102 17.803-6.028 37.105-.015 54.723l-45.295 15.588c-3.562-10.441-5.837-21.4-6.713-32.688-1.422-18.325.922-36.366 6.726-53.24zm25.343 129.83l36.145-31.395c2.669 3.056 5.58 5.964 8.754 8.68 11.466 9.814 24.808 15.993 38.634 18.691l-9.143 46.997c-22.325-4.348-43.185-14.422-60.604-29.333-4.965-4.248-9.564-8.808-13.786-13.64zm144.736 37.569c-6.409 2.309-12.986 4.11-19.658 5.403l-9.117-47c17.789-3.467 34.585-12.651 47.394-27.342l36.121 31.409c-14.789 16.982-33.686 29.942-54.74 37.53z"/>
  <circle cx="93.372" cy="53.498" r="8"/>
  <circle cx="38.758" cy="148.382" r="8"/>
  <circle cx="93.623" cy="243.123" r="8"/>
  <circle cx="203.105" cy="242.977" r="8.001"/>
  <circle cx="257.717" cy="148.091" r="8"/>
  <circle cx="202.853" cy="53.351" r="8"/>
</svg>
